
Format : MPEG-4
Format profile : Base Media / Version 2
Codec ID : mp42
File size : 346 MiB
Duration : 1h 48mn
Overall bit rate : 447 Kbps
Encoded date : UTC 2010-10-04 20:17:48
Tagged date : UTC 2010-10-04 20:18:08
Writing application : mp4creator 1.6.1d

Video
ID : 1
Format : AVC
Format/Info : Advanced Video Codec
Format profile : Baseline@L1.3
Format settings, CABAC : No
Format settings, ReFrames : 1 frame
Codec ID : avc1
Codec ID/Info : Advanced Video Coding
Duration : 1h 48mn
Bit rate mode : Variable
Bit rate : 382 Kbps
Width : 480 pixels
Height : 272 pixels
Display aspect ratio : 16:9
Original display aspect ratio : 16:9
Frame rate mode : Constant
Frame rate : 24.000 fps
Resolution : 24 bits
Colorimetry : 4:2:0
Scan type : Progressive
Bits/(Pixel*Frame) : 0.122
Stream size : 296 MiB (86%)
Encoded date : UTC 2010-10-04 20:17:48
Tagged date : UTC 2010-10-04 20:18:05

Audio
ID : 2
Format : AAC
Format/Info : Advanced Audio Codec
Format version : Version 4
Format profile : LC
Format settings, SBR : Yes
Format settings, PS : No
Codec ID : 40
Duration : 1h 48mn
Bit rate mode : Variable
Bit rate : 62.8 Kbps
Maximum bit rate : 96.8 Kbps
Channel(s) : 2 channels
Channel positions : L R
Sampling rate : 48.0 KHz
Resolution : 16 bits
Stream size : 48.6 MiB (14%)
Encoded date : UTC 2010-10-04 20:18:06
Tagged date : UTC 2010-10-04 20:18:08

Tells the story of seventeen year-old J (Josh) as he navigates his survival amongst an explosive criminal family and the detective who thinks he can save him.
 
http://www.imdb.com/title/tt1313092/

screen shots
 
http://img121.imageshack.us/img121/4576/animalkingh264vicemp4sn.jpg 
http://img826.imageshack.us/img826/4576/animalkingh264vicemp4sn.jpg 
http://img705.imageshack.us/img705/4576/animalkingh264vicemp4sn.jpg 
http://img375.imageshack.us/img375/4576/animalkingh264vicemp4sn.jpg